<svg width="134" height="134" viewBox="0 0 134 134" fill="none" xmlns="http://www.w3.org/2000/svg">
<circle cx="67" cy="67" r="62" fill="white" stroke="#F0F0F0" stroke-width="10"/>
<path d="M27.832 65.2441C27.832 66.4708 27.252 67.8374 26.092 69.3441C24.932 70.8508 23.312 72.4908 21.232 74.2641H28.272V75.7041H19.392V74.2641C19.6454 74.0241 19.992 73.7108 20.432 73.3241C20.872 72.9374 21.3454 72.5108 21.852 72.0441C22.3587 71.5641 22.872 71.0508 23.392 70.5041C23.9254 69.9574 24.4054 69.3974 24.832 68.8241C25.2587 68.2508 25.6054 67.6774 25.872 67.1041C26.1387 66.5308 26.272 65.9774 26.272 65.4441C26.272 64.6441 26.0587 64.0174 25.632 63.5641C25.2187 63.0974 24.592 62.8641 23.752 62.8641C23.032 62.8641 22.4254 62.9441 21.932 63.1041C21.4387 63.2641 20.992 63.4974 20.592 63.8041L19.912 62.7041C20.512 62.2774 21.1454 61.9641 21.812 61.7641C22.492 61.5641 23.232 61.4641 24.032 61.4641C25.2854 61.4641 26.232 61.8041 26.872 62.4841C27.512 63.1641 27.832 64.0841 27.832 65.2441ZM30.5682 63.7041H33.4242V61.3281L35.2962 60.8001V63.7041H41.7042V65.3121H35.2962V70.9761C35.2962 72.1441 35.5762 73.0081 36.1362 73.5681C36.7122 74.1281 37.5282 74.4081 38.5842 74.4081C39.3042 74.4081 39.9282 74.2721 40.4562 74.0001C41.0002 73.7281 41.4882 73.4321 41.9202 73.1121L42.5442 74.5281C41.9842 74.9761 41.3122 75.3361 40.5282 75.6081C39.7602 75.8801 38.9682 76.0161 38.1522 76.0161C37.5122 76.0161 36.9042 75.9201 36.3282 75.7281C35.7682 75.5521 35.2722 75.2721 34.8402 74.8881C34.4082 74.5041 34.0642 74.0161 33.8082 73.4241C33.5522 72.8161 33.4242 72.0961 33.4242 71.2641V65.3121H30.5682V63.7041ZM45.7988 75.7041V74.0961H49.0388V65.3121H45.7988V63.7041H50.2868L50.6708 65.2641H50.7908C51.3348 64.7681 51.9428 64.3441 52.6148 63.9921C53.2868 63.6401 54.0868 63.4641 55.0148 63.4641C55.5588 63.4641 55.9908 63.5681 56.3108 63.7761C56.6468 63.9841 56.9028 64.2881 57.0788 64.6881C57.2708 65.0881 57.3988 65.5761 57.4628 66.1521C57.5268 66.7121 57.5588 67.3521 57.5588 68.0721L55.8788 68.0961C55.8788 67.0721 55.7748 66.3201 55.5668 65.8401C55.3748 65.3601 55.0148 65.1201 54.4868 65.1201C53.9908 65.1201 53.5428 65.1921 53.1428 65.3361C52.7428 65.4801 52.3908 65.6561 52.0868 65.8641C51.7988 66.0721 51.5508 66.2801 51.3428 66.4881C51.1348 66.6961 50.9828 66.8721 50.8868 67.0161V74.0961H55.4948V75.7041H45.7988ZM61.7015 67.9041H69.9095V69.6801H61.7015V67.9041ZM75.2281 67.9041C75.2281 67.7601 75.2201 67.5761 75.2041 67.3521C75.2041 67.1121 75.1961 66.8721 75.1801 66.6321C75.1641 66.3761 75.1401 66.1281 75.1081 65.8881C75.0921 65.6481 75.0681 65.4401 75.0361 65.2641H73.4281V63.7041H76.6441L76.8601 65.6481H76.9801C77.1401 65.3761 77.3481 65.1121 77.6041 64.8561C77.8761 64.5841 78.1881 64.3441 78.5401 64.1361C78.8921 63.9121 79.2841 63.7361 79.7161 63.6081C80.1481 63.4801 80.6041 63.4161 81.0841 63.4161C81.8201 63.4161 82.4681 63.4961 83.0281 63.6561C83.6041 63.8161 84.0761 64.1041 84.4441 64.5201C84.8281 64.9201 85.1161 65.4721 85.3081 66.1761C85.5001 66.8641 85.5961 67.7441 85.5961 68.8161V75.7041H83.7241V69.1761C83.7241 67.8481 83.5081 66.8481 83.0761 66.1761C82.6441 65.5041 81.8601 65.1681 80.7241 65.1681C80.3081 65.1681 79.9001 65.2561 79.5001 65.4321C79.1161 65.5921 78.7641 65.8081 78.4441 66.0801C78.1241 66.3521 77.8441 66.6721 77.6041 67.0401C77.3641 67.3921 77.1881 67.7681 77.0761 68.1681V75.7041H75.2281V67.9041ZM88.7547 69.7041C88.7547 67.7681 89.2587 66.2401 90.2667 65.1201C91.2747 63.9841 92.7147 63.4161 94.5867 63.4161C95.5947 63.4161 96.4587 63.5841 97.1787 63.9201C97.9147 64.2401 98.5227 64.6801 99.0027 65.2401C99.4827 65.8001 99.8347 66.4641 100.059 67.2321C100.299 68.0001 100.419 68.8241 100.419 69.7041C100.419 70.6641 100.291 71.5361 100.035 72.3201C99.7787 73.0881 99.4027 73.7441 98.9067 74.2881C98.4107 74.8321 97.7947 75.2561 97.0587 75.5601C96.3387 75.8481 95.5147 75.9921 94.5867 75.9921C93.5947 75.9921 92.7307 75.8321 91.9947 75.5121C91.2587 75.1761 90.6507 74.7281 90.1707 74.1681C89.6907 73.6081 89.3307 72.9441 89.0907 72.1761C88.8667 71.4081 88.7547 70.5841 88.7547 69.7041ZM90.7467 69.7041C90.7467 70.2641 90.8107 70.8241 90.9387 71.3841C91.0827 71.9441 91.3067 72.4481 91.6107 72.8961C91.9147 73.3441 92.3067 73.7041 92.7867 73.9761C93.2827 74.2481 93.8827 74.3841 94.5867 74.3841C95.8667 74.3841 96.8267 73.9921 97.4667 73.2081C98.1227 72.4081 98.4507 71.2401 98.4507 69.7041C98.4507 69.1281 98.3787 68.5681 98.2347 68.0241C98.1067 67.4641 97.8827 66.9601 97.5627 66.5121C97.2587 66.0641 96.8587 65.7041 96.3627 65.4321C95.8827 65.1601 95.2907 65.0241 94.5867 65.0241C93.3067 65.0241 92.3467 65.4161 91.7067 66.2001C91.0667 66.9841 90.7467 68.1521 90.7467 69.7041ZM109.913 66.3441L112.313 73.0161H112.481L114.185 63.7041H115.937L113.585 75.7041H111.449L109.145 69.0801H109.073L106.673 75.7041H104.537L102.017 63.7041H103.865L105.809 73.0641H105.953L108.281 66.3441H109.913Z" fill="black"/>
</svg>
